<svg width="446" height="440" viewBox="0 0 446 440" fill="none" xmlns="http://www.w3.org/2000/svg">
<path d="M172.463 14.0938C162.763 17.0886 125.132 29.7839 82.2288 66.5678C71.8121 75.4871 29.7548 111.49 11.7861 159.927C-18.8129 242.349 17.7756 367.805 123.179 418.195C245.966 476.919 399.351 407.258 434.703 310.578C450.393 267.675 452.867 193.912 413.348 147.037C381.513 109.276 327.151 91.3074 329.234 55.6303C330.276 38.4428 343.427 33.6902 339.781 22.8178C331.122 -2.83325 240.953 -6.99991 172.463 14.0938Z" fill="#8C0102"/>
<path d="M136.266 16.2422C144.924 14.875 153.063 20.7344 154.43 29.263C155.797 37.7917 149.938 45.8646 141.279 47.1667C132.62 48.5339 124.482 42.7396 123.115 34.211C121.747 25.6172 127.607 17.6094 136.266 16.2422ZM106.773 33.625L107.75 39.6797L114.456 40.0703C114.977 41.4375 115.562 42.7396 116.214 43.9766L112.047 49.1849L115.953 53.9375L121.943 50.9427C123.049 51.8542 124.221 52.7005 125.458 53.4167L124.482 60.0573L130.211 62.2058L133.987 56.6719C135.354 56.9323 136.786 57.0625 138.219 57.1276L140.693 63.3125L146.813 62.336L147.268 55.6953C148.635 55.2396 149.938 54.6537 151.174 54.0026L156.448 58.1042L161.266 54.263L158.271 48.3386C159.182 47.2318 160.029 46.125 160.745 44.888L167.451 45.8646L169.664 40.1354L164.065 36.4896C164.326 35.1224 164.456 33.6901 164.521 32.2578L170.771 29.7839L169.794 23.7943L163.089 23.3386C162.568 22.0365 161.982 20.7344 161.331 19.4974L165.497 14.2891L161.591 9.5365L155.602 12.4662C154.495 11.5547 153.323 10.7084 152.086 9.99222L153.063 3.4167L147.333 1.26827L143.557 6.80212C142.19 6.4766 140.758 6.34638 139.326 6.34638L136.852 0.161499L130.732 1.13805L130.276 7.77868C128.909 8.2344 127.607 8.82035 126.37 9.47138L121.096 5.36983L116.279 9.21097L119.273 15.1354C118.362 16.2422 117.516 17.349 116.799 18.586L110.094 17.6094L107.88 23.2735L113.479 26.9844C113.219 28.3516 113.089 29.7839 113.023 31.2162L106.773 33.625Z" fill="white"/>
<path d="M138.87 18.7813C134.899 19.4324 131.383 21.5157 129.039 24.7709C126.696 27.961 125.719 31.8672 126.37 35.8386C127.672 43.9115 135.355 49.4454 143.558 48.1433C151.761 46.9063 157.425 39.224 156.123 31.1511C154.821 23.0782 147.073 17.5443 138.87 18.7813ZM141.214 49.9662C133.141 49.9662 126.045 44.1719 124.743 36.0339C124.092 31.737 125.133 27.3751 127.737 23.7943C130.342 20.2787 134.248 17.935 138.61 17.2188C147.724 15.7865 156.253 21.9714 157.685 30.8907C159.118 39.8751 152.933 48.3386 143.818 49.7058C142.972 49.9011 142.06 49.9662 141.214 49.9662ZM136.396 57.6485C136.461 57.6485 136.526 57.6485 136.592 57.6485C137.894 57.9089 139.326 58.0391 140.693 58.1042C141.019 58.1042 141.279 58.2995 141.409 58.56L143.688 64.1589L148.506 63.4428L148.896 57.3881C148.896 57.1277 149.157 56.8021 149.417 56.737C150.784 56.2813 152.021 55.6954 153.258 55.0443C153.519 54.9141 153.844 54.9141 154.105 55.1094L158.922 58.8204L162.698 55.8256L159.964 50.4219C159.834 50.1615 159.899 49.7709 160.094 49.5756C161.006 48.5339 161.852 47.4271 162.568 46.2553C162.698 45.9297 163.024 45.7995 163.349 45.8646L169.339 46.711L171.097 42.2188L166.084 38.8985C165.823 38.7032 165.628 38.3777 165.693 38.1172C165.954 36.7501 166.084 35.3829 166.149 34.0157C166.149 33.6902 166.344 33.4297 166.67 33.2995L172.334 31.086L171.553 26.3334L165.433 25.9428C165.172 25.8777 164.847 25.6824 164.782 25.3568C164.326 24.0547 163.74 22.8178 163.089 21.6459C162.894 21.3204 162.959 20.9949 163.154 20.7344L166.93 16.0469L163.87 12.2709L158.401 14.9402C158.076 15.1355 157.75 15.0704 157.49 14.8751C156.448 13.9636 155.342 13.1824 154.17 12.4662C153.844 12.2709 153.714 11.9454 153.779 11.6199L154.625 5.69538L150.068 4.00267L146.683 8.95058C146.553 9.211 146.227 9.34122 145.901 9.34122C144.534 9.0808 143.167 8.88548 141.735 8.88548C141.409 8.88548 141.149 8.69017 141.019 8.36465L138.74 2.8308L133.922 3.54693L133.532 9.53653C133.532 9.86205 133.336 10.1225 133.011 10.2527C131.709 10.7084 130.407 11.2943 129.235 11.9454C128.909 12.0756 128.584 12.0105 128.323 11.8152L123.571 8.10423L119.795 11.1641L122.464 16.5678C122.594 16.8282 122.594 17.1537 122.334 17.4141C121.422 18.4558 120.641 19.5626 119.925 20.7344C119.73 20.9949 119.404 21.1251 119.079 21.1251L113.089 20.2136L111.331 24.7709L116.409 28.0912C116.67 28.2214 116.8 28.5469 116.735 28.8725C116.474 30.1745 116.344 31.6068 116.279 32.974C116.279 33.2995 116.084 33.56 115.823 33.6902L110.159 35.9037L110.941 40.6563L116.995 41.0469C117.321 41.0469 117.581 41.3074 117.711 41.5678C118.167 42.8699 118.753 44.1719 119.404 45.3438C119.534 45.6042 119.534 45.9949 119.274 46.1902L115.563 50.9428L118.623 54.6537L124.092 51.9844C124.352 51.8542 124.678 51.9193 124.938 52.1146C125.98 53.0261 127.151 53.8074 128.323 54.5235C128.584 54.7188 128.714 54.9792 128.714 55.3047L127.803 61.2943L132.36 62.9871L135.745 57.974C135.875 57.7787 136.136 57.6485 136.396 57.6485ZM143.167 65.8516C142.842 65.8516 142.581 65.6563 142.451 65.3308L140.107 59.6667C139 59.6016 137.894 59.4714 136.787 59.3412L133.336 64.4193C133.141 64.6797 132.75 64.81 132.425 64.6797L126.631 62.5313C126.305 62.4011 126.045 62.0105 126.11 61.685L127.021 55.6303C126.11 55.0443 125.198 54.3933 124.287 53.6771L118.753 56.3464C118.428 56.5417 117.972 56.4766 117.776 56.1511L113.87 51.4636C113.675 51.1381 113.675 50.7475 113.87 50.4219L117.711 45.6693C117.191 44.6928 116.735 43.6511 116.344 42.6094L110.159 42.2188C109.769 42.2188 109.508 41.8933 109.443 41.5678L108.467 35.5131C108.401 35.1876 108.597 34.7969 108.922 34.6667L114.717 32.3881C114.782 31.2813 114.847 30.1745 115.042 29.1329L109.899 25.6824C109.573 25.487 109.443 25.0964 109.573 24.7709L111.787 19.1068C111.917 18.7162 112.308 18.5209 112.698 18.586L118.818 19.4975C119.404 18.5209 120.055 17.6094 120.771 16.7631L118.037 11.2943C117.842 10.9688 117.972 10.5782 118.232 10.3178L123.05 6.47663C123.31 6.28132 123.766 6.28132 124.026 6.47663L128.909 10.2527C129.886 9.79693 130.928 9.34122 131.969 8.95058L132.36 2.8308C132.425 2.44017 132.685 2.11465 133.076 2.11465L139.131 1.13808C139.521 1.07298 139.912 1.2683 140.042 1.59382L142.321 7.32298C143.428 7.38808 144.599 7.4532 145.641 7.6485L149.092 2.57038C149.287 2.24487 149.678 2.11465 150.068 2.24487L155.797 4.4584C156.188 4.5886 156.383 4.91413 156.318 5.30475L155.407 11.3594C156.383 11.9454 157.295 12.5964 158.141 13.3126L163.675 10.5782C164.066 10.448 164.456 10.5131 164.717 10.8386L168.558 15.5261C168.818 15.8516 168.818 16.2422 168.558 16.5027L164.717 21.3204C165.237 22.2969 165.693 23.3386 166.084 24.3803L172.269 24.7709C172.659 24.7709 172.985 25.0313 173.05 25.4219L174.026 31.4115C174.026 31.8021 173.831 32.1928 173.506 32.323L167.711 34.5365C167.711 35.7084 167.581 36.8152 167.386 37.8568L172.529 41.2422C172.855 41.4376 172.985 41.8282 172.855 42.2188L170.641 47.8829C170.511 48.2084 170.12 48.4688 169.795 48.4037L163.61 47.4922C163.024 48.4688 162.373 49.3152 161.657 50.1615L164.391 55.6954C164.586 56.0209 164.521 56.4115 164.196 56.6719L159.378 60.448C159.118 60.7084 158.727 60.7084 158.401 60.5131L153.519 56.6719C152.542 57.1928 151.5 57.6485 150.459 58.0391L150.068 64.1589C150.068 64.5495 149.743 64.81 149.417 64.8751L143.297 65.8516C143.232 65.8516 143.232 65.8516 143.167 65.8516Z" fill="black"/>
<path d="M50.7838 52.375C65.6276 50.0313 79.4948 60.0573 81.8385 74.6406C84.1823 89.2891 74.0911 103.026 59.3125 105.305C44.4687 107.648 30.6016 97.6875 28.1927 83.0391C25.849 68.4557 36.0052 54.7188 50.7838 52.375ZM0.328125 82.1276L1.95573 92.4141L13.4792 93.1302C14.2604 95.474 15.3021 97.6875 16.474 99.7708L9.31249 108.69L15.9531 116.828L26.3047 111.75C28.1276 113.312 30.1458 114.745 32.2292 116.047L30.6016 127.245L40.4323 131.021L46.8125 121.581C49.1562 121.971 51.6302 122.232 54.1042 122.297L58.401 132.844L68.8177 131.216L69.5338 119.888C71.8776 119.107 74.1562 118.13 76.2396 116.958L85.2891 123.99L93.4922 117.414L88.349 107.258C89.9766 105.37 91.4088 103.417 92.7109 101.398L104.104 103.026L107.88 93.2604L98.3099 87.0104C98.7656 84.6016 99.026 82.1927 99.026 79.7838L109.768 75.5521L108.076 65.2656L96.6172 64.5495C95.7708 62.2057 94.7943 59.9922 93.6224 57.9089L100.784 48.9896L94.1432 40.9167L83.7917 45.9297C81.9036 44.3672 79.9505 42.9349 77.8672 41.6979L79.4948 30.4349L69.6641 26.724L63.2838 36.1641C60.875 35.7083 58.4661 35.4479 55.9922 35.3828L51.6953 24.8359L41.2786 26.4635L40.5625 37.7917C38.2187 38.638 35.9401 39.6146 33.7917 40.7214L24.8073 33.6901L16.6042 40.2656L21.6823 50.487C20.1198 52.3099 18.6875 54.263 17.3854 56.3464L5.99218 54.7188L2.21614 64.4193L11.7865 70.7344C11.3307 73.0781 11.0703 75.487 11.0052 77.9609L0.328125 82.1276Z" fill="#99B9FF"/>
<path d="M55.0807 56.1511C48.1797 57.2579 42.0599 60.9688 37.8932 66.5678C33.7916 72.1668 32.0989 79.0678 33.2057 85.9037C34.3125 92.8048 38.0885 98.7943 43.7526 102.896C49.4166 106.997 56.3828 108.625 63.3489 107.518C70.3151 106.477 76.4349 102.766 80.5364 97.1667C84.7031 91.5027 86.3307 84.6668 85.289 77.7657C84.1823 70.9298 80.4062 64.8751 74.7421 60.8386C69.013 56.7371 62.0468 55.1095 55.0807 56.1511ZM59.1823 109.471C53.3229 109.471 47.6588 107.649 42.776 104.198C36.7864 99.836 32.8151 93.4558 31.6432 86.1642C30.4713 78.8725 32.2291 71.5808 36.5911 65.6563C41.0182 59.6668 47.4635 55.7605 54.8854 54.5886C62.2422 53.4168 69.5989 55.1746 75.6536 59.5366C81.7083 63.8334 85.6797 70.2787 86.8515 77.5053C88.0234 84.797 86.2656 92.0886 81.8385 98.0782C77.4765 104.068 70.9661 107.974 63.6093 109.146C62.112 109.341 60.6797 109.471 59.1823 109.471ZM50.9791 123.794C51.0442 123.794 51.1093 123.794 51.1745 123.794C53.4531 124.25 55.8619 124.445 58.3359 124.51C58.6614 124.51 58.9218 124.706 59.0521 125.031L63.0885 134.992L72.2031 133.56L72.9192 122.818C72.9843 122.492 73.1796 122.232 73.4401 122.167C75.7838 121.385 77.9974 120.409 80.0807 119.237C80.3411 119.107 80.6666 119.107 80.9271 119.302L89.4557 125.943L96.6823 120.214L91.8646 110.578C91.7343 110.318 91.7343 109.927 91.9948 109.732C93.5573 107.909 94.9245 105.956 96.2265 103.938C96.3567 103.677 96.6823 103.547 97.0078 103.612L107.75 105.109L111.07 96.5808L102.021 90.6563C101.76 90.461 101.63 90.1355 101.695 89.81C102.151 87.5313 102.411 85.1876 102.477 82.7787C102.477 82.4532 102.672 82.1277 102.932 82.0626L113.088 78.0912L111.591 69.0418L100.784 68.3256C100.458 68.3256 100.133 68.1303 100.068 67.8048C99.2213 65.5261 98.2448 63.3777 97.138 61.2944C96.9427 61.0339 97.0078 60.6433 97.2031 60.448L103.909 51.9845L98.1146 44.8881L88.3489 49.6407C88.0234 49.7709 87.6979 49.7709 87.4375 49.5756C85.6146 48.0131 83.6614 46.5808 81.6432 45.3438C81.3828 45.2136 81.1875 44.8881 81.2526 44.5626L82.8151 33.9506L74.1562 30.6954L68.1666 39.6147C67.9713 39.8751 67.6458 40.0053 67.3203 39.9402C64.9765 39.4845 62.5677 39.2241 60.1588 39.2241C59.8333 39.2241 59.5078 39.0287 59.4427 38.7032L55.4062 28.7423L46.2265 30.1746L45.5104 40.8517C45.5104 41.1772 45.3151 41.4376 44.9896 41.5678C42.7109 42.3491 40.4974 43.3256 38.414 44.4324C38.1536 44.6277 37.763 44.5626 37.5026 44.3673L28.9739 37.7267L21.8125 43.5209L26.6302 53.1563C26.7604 53.4168 26.6953 53.7423 26.5 54.0027C24.9375 55.7605 23.5052 57.7136 22.2682 59.7319C22.138 59.9923 21.8125 60.1876 21.487 60.1225L10.6797 58.56L7.35934 67.0886L16.4088 73.0782C16.6692 73.2735 16.7995 73.5339 16.7343 73.8595C16.3437 76.2032 16.0833 78.547 16.0182 80.9558C16.0182 81.2813 15.8229 81.5418 15.4974 81.672L5.40622 85.6433L6.83851 94.6928L17.7109 95.4089C18.0364 95.4089 18.2968 95.6042 18.4271 95.9298C19.2083 98.2084 20.1849 100.357 21.3567 102.44C21.487 102.701 21.487 103.026 21.2916 103.287L14.5208 111.685L20.3802 118.781L30.1458 114.029C30.4062 113.899 30.7968 113.964 30.9922 114.159C32.8151 115.721 34.7682 117.089 36.8515 118.326C37.112 118.521 37.2421 118.846 37.2421 119.172L35.6797 129.784L44.2734 133.039L50.3281 124.12C50.4583 123.925 50.7187 123.794 50.9791 123.794ZM62.5677 136.685C62.2422 136.685 61.9166 136.49 61.8515 136.164L57.75 126.073C55.6015 126.008 53.4531 125.813 51.3698 125.422L45.3151 134.471C45.0546 134.732 44.664 134.862 44.3385 134.732L34.5078 131.021C34.1172 130.891 33.9218 130.565 33.987 130.175L35.5495 119.432C33.7265 118.326 32.0338 117.089 30.3411 115.721L20.5104 120.539C20.1849 120.669 19.7942 120.604 19.5338 120.279L12.8932 112.206C12.6328 111.945 12.6328 111.49 12.8932 111.229L19.664 102.701C18.6875 100.878 17.8411 98.9246 17.0599 96.9063L6.12237 96.2553C5.73174 96.1902 5.40622 95.9298 5.40622 95.5392L3.71351 85.2527C3.64841 84.9272 3.84372 84.5366 4.23434 84.4063L14.4557 80.3699C14.5208 78.2866 14.7161 76.1381 15.1067 74.1199L5.92706 68.0652C5.66664 67.8699 5.53644 67.4793 5.66664 67.1537L9.44267 57.3881C9.57289 57.0626 9.89841 56.8673 10.289 56.9324L21.1614 58.4949C22.3333 56.672 23.5703 54.9793 24.9375 53.3517L20.0547 43.6511C19.9245 43.3256 19.9896 42.8699 20.3151 42.6746L28.4531 36.0991C28.7786 35.9037 29.1692 35.9037 29.4948 36.0991L38.0885 42.8048C39.9765 41.8282 41.9297 40.9819 43.9479 40.2657L44.664 29.3933C44.7291 29.0678 44.9896 28.7423 45.3802 28.6772L55.7968 27.0496C56.1224 26.9845 56.513 27.1798 56.6432 27.5704L60.7448 37.5964C62.8932 37.7267 65.0416 37.922 67.125 38.2475L73.1796 29.2631C73.375 28.9376 73.7656 28.8074 74.1562 28.9376L83.987 32.7136C84.3125 32.8438 84.5729 33.1694 84.5078 33.56L82.9453 44.3022C84.7031 45.4089 86.4609 46.6459 88.0885 48.0131L97.9843 43.1954C98.3099 43.0001 98.7005 43.1303 98.9609 43.3907L105.602 51.5287C105.797 51.7892 105.797 52.1798 105.602 52.5053L98.7656 60.9688C99.8073 62.8569 100.654 64.81 101.37 66.7631L112.372 67.4793C112.698 67.5444 113.023 67.8048 113.088 68.1303L114.716 78.4168C114.781 78.8074 114.586 79.1329 114.26 79.3282L104.039 83.2996C103.974 85.448 103.779 87.5964 103.388 89.6147L112.503 95.6042C112.828 95.8647 112.958 96.2553 112.828 96.5808L109.052 106.281C108.922 106.672 108.531 106.867 108.141 106.802L97.2682 105.24C96.1614 106.997 94.9245 108.755 93.5573 110.383L98.375 120.083C98.5703 120.409 98.5052 120.8 98.1797 121.06L89.9765 127.635C89.7161 127.831 89.2604 127.831 89 127.635L80.3411 120.93C78.5182 121.906 76.5651 122.753 74.4817 123.469L73.7656 134.276C73.7656 134.667 73.5052 134.992 73.1146 135.057L62.6979 136.685C62.6328 136.685 62.6328 136.685 62.5677 136.685Z" fill="black"/>
<path d="M56.904 370.93H241.8C246.878 370.93 250.914 366.958 250.849 362.076L247.399 114.419C247.203 107.779 243.818 104.003 238.089 104.003H53.193C48.6357 104.003 44.7946 107.193 44.1436 111.555L47.5941 362.076C47.6592 366.958 51.8258 370.93 56.904 370.93Z" fill="#5479F7"/>
<path d="M66.0833 371.451H250.979C256.057 371.451 260.094 367.479 260.094 362.531L256.773 113.378C256.578 106.672 253.193 102.896 247.464 102.896H62.5677C58.0104 102.896 54.1693 106.086 53.4531 110.513L56.7734 362.531C56.8385 367.479 61.0052 371.451 66.0833 371.451Z" fill="#CADDFF"/>
<path d="M54.2995 110.578L57.6198 362.531C57.6198 367.023 61.4609 370.669 66.0833 370.669H250.979C253.258 370.669 255.341 369.823 256.969 368.195C258.466 366.698 259.312 364.68 259.247 362.531L255.992 113.378C255.732 107.128 252.737 103.677 247.464 103.677H62.5677C58.401 103.677 54.9505 106.542 54.2995 110.578ZM250.979 372.232H66.0833C60.6146 372.232 56.0573 367.87 55.9922 362.531L52.6719 110.448V110.383C53.4531 105.565 57.5547 102.115 62.5677 102.115H247.464C253.648 102.115 257.359 106.151 257.555 113.313L260.875 362.531C260.875 365.07 259.898 367.479 258.076 369.367C256.188 371.19 253.714 372.232 250.979 372.232Z" fill="#5479F7"/>
<path d="M66.0837 372.232C60.6149 372.232 56.0576 367.87 55.9925 362.531L52.1514 167.609C52.1514 167.154 52.4769 166.763 52.9326 166.763C53.3883 166.763 53.779 167.089 53.779 167.544L57.6201 362.531C57.6201 367.023 61.4613 370.669 66.0837 370.669L193.883 370.474C194.339 370.474 194.664 370.8 194.664 371.255C194.664 371.711 194.339 372.036 193.883 372.036L66.0837 372.232Z" fill="#5479F7"/>
<path d="M73.5703 155.826C72.8542 155.826 72.2031 156.151 71.6823 156.607C71.1615 157.128 70.901 157.909 70.901 158.69L71.0964 174.706C71.0964 176.268 72.3333 177.57 73.8307 177.57H89.3906C90.1068 177.57 90.7578 177.31 91.2135 176.789C91.7995 176.268 92.0599 175.552 92.0599 174.706L91.8646 158.69C91.8646 157.128 90.6276 155.826 89.1302 155.826H73.5703ZM89.3906 179.133H73.8307C71.487 179.133 69.5339 177.18 69.4688 174.706L69.2734 158.69C69.2734 157.453 69.7292 156.346 70.5755 155.5C71.3568 154.719 72.4635 154.263 73.5703 154.263H89.1302C91.474 154.263 93.4271 156.216 93.4922 158.69L93.6875 174.706C93.6875 175.943 93.2318 177.05 92.3854 177.896C91.6042 178.742 90.4974 179.133 89.3906 179.133Z" fill="#5479F7"/>
<path d="M73.9613 197.037C73.3102 197.037 72.6592 197.297 72.1383 197.753C71.6175 198.339 71.292 199.055 71.292 199.836L71.5524 215.852C71.5524 217.479 72.7894 218.716 74.2868 218.716H89.8467C90.4977 218.716 91.1488 218.456 91.6696 217.935C92.1904 217.414 92.516 216.698 92.516 215.917L92.3206 199.836C92.2555 198.274 91.0186 197.037 89.5212 197.037H73.9613ZM89.8467 220.344H74.2868C71.8779 220.344 69.9248 218.326 69.9248 215.917L69.7295 199.836C69.7295 198.664 70.1852 197.492 71.0316 196.646C71.8128 195.865 72.8545 195.409 73.9613 195.409H89.5212C91.93 195.409 93.8831 197.427 93.8831 199.836L94.0785 215.852C94.1436 217.089 93.6878 218.26 92.8415 219.042C91.9951 219.888 90.9535 220.344 89.8467 220.344Z" fill="#5479F7"/>
<path d="M74.4814 237.206C73.7653 237.206 73.1142 237.466 72.6585 237.987C72.0726 238.508 71.8122 239.224 71.8122 240.005L72.0075 256.086C72.0075 257.649 73.2445 258.951 74.7418 258.951H90.3017C91.0179 258.951 91.6689 258.625 92.1898 258.169C92.7106 257.583 92.971 256.867 92.971 256.086L92.7757 240.07C92.7757 238.508 91.5387 237.206 90.0413 237.206H74.4814ZM90.3017 260.513H74.7418C72.3981 260.513 70.445 258.56 70.3799 256.086L70.1846 240.07C70.1846 238.833 70.6403 237.727 71.4867 236.88C72.2679 236.034 73.3747 235.643 74.4814 235.643H90.0413C92.3851 235.643 94.3382 237.596 94.4033 240.005L94.5986 256.086C94.5986 257.323 94.1429 258.43 93.2965 259.276C92.5153 260.057 91.4736 260.513 90.3017 260.513Z" fill="#5479F7"/>
<path d="M75.3278 278.742C74.6767 278.742 74.0257 279.068 73.5048 279.523C72.984 280.044 72.6585 280.826 72.6585 281.607L72.8538 297.622C72.9189 299.185 74.1559 300.487 75.6533 300.487H91.1481C91.8642 300.487 92.5153 300.227 93.0361 299.706C93.5569 299.185 93.8824 298.469 93.8173 297.622L93.622 281.607C93.622 280.044 92.385 278.742 90.8876 278.742H75.3278ZM91.1481 302.049H75.6533C73.2444 302.049 71.2913 300.096 71.2913 297.622L71.096 281.607C71.0309 280.37 71.4866 279.263 72.333 278.417C73.1793 277.635 74.221 277.18 75.3278 277.18H90.8876C93.2965 277.18 95.2496 279.133 95.2496 281.607L95.445 297.622C95.445 298.859 94.9892 299.966 94.1429 300.812C93.3616 301.659 92.3199 302.049 91.1481 302.049Z" fill="#5479F7"/>
<path d="M199.482 132.714H111.201C109.378 132.714 107.881 131.216 107.816 129.328V126.529C107.75 124.641 109.248 123.143 111.071 123.143H199.352C201.175 123.143 202.672 124.641 202.672 126.529L202.737 129.328C202.737 131.216 201.305 132.714 199.482 132.714Z" fill="white"/>
<path d="M239.065 170.93H109.442C107.554 170.93 105.992 169.367 105.927 167.479C105.927 165.656 107.424 164.094 109.312 164.094H239C240.888 164.094 242.45 165.656 242.515 167.479C242.515 169.367 241.018 170.93 239.065 170.93Z" fill="white"/>
<path d="M221.031 188.443H109.703C107.75 188.443 106.188 186.88 106.188 184.992C106.188 183.169 107.685 181.607 109.573 181.607H220.901C222.789 181.607 224.352 183.169 224.417 184.992C224.417 186.88 222.919 188.443 221.031 188.443Z" fill="white"/>
<path d="M230.211 212.401H110.094C108.206 212.401 106.644 210.839 106.644 208.951C106.644 207.128 108.141 205.565 110.029 205.565H230.146C232.034 205.565 233.597 207.128 233.662 208.951C233.662 210.839 232.164 212.401 230.211 212.401Z" fill="white"/>
<path d="M178.062 229.523H110.484C108.596 229.523 107.034 228.026 106.969 226.138C106.969 224.315 108.466 222.753 110.419 222.753H177.932C179.885 222.753 181.448 224.315 181.448 226.138C181.448 228.026 179.951 229.523 178.062 229.523Z" fill="white"/>
<path d="M240.107 251.724H110.484C108.596 251.724 107.034 250.162 106.969 248.273C106.969 246.451 108.466 244.888 110.354 244.888H240.042C241.93 244.888 243.492 246.451 243.557 248.273C243.557 250.162 242.06 251.724 240.107 251.724Z" fill="white"/>
<path d="M222.073 269.237H110.745C108.792 269.237 107.229 267.675 107.229 265.787C107.229 263.964 108.727 262.401 110.615 262.401H221.943C223.831 262.401 225.394 263.964 225.459 265.787C225.459 267.675 223.961 269.237 222.073 269.237Z" fill="white"/>
<path d="M237.894 293.13H110.875C108.987 293.13 107.425 291.633 107.425 289.745C107.36 287.857 108.922 286.359 110.81 286.359H237.828C239.716 286.359 241.279 287.857 241.279 289.745C241.344 291.633 239.782 293.13 237.894 293.13Z" fill="white"/>
<path d="M179.104 309.146H111.526C109.638 309.146 108.076 307.648 108.011 305.76C108.011 303.872 109.508 302.375 111.396 302.375H178.974C180.862 302.375 182.425 303.872 182.49 305.76C182.49 307.648 180.993 309.146 179.104 309.146Z" fill="white"/>
<path d="M241.604 332.062H111.916C110.028 332.062 108.466 330.565 108.466 328.677C108.401 326.789 109.963 325.292 111.851 325.292H241.474C243.427 325.292 244.989 326.789 244.989 328.677C244.989 330.565 243.492 332.062 241.604 332.062Z" fill="white"/>
<path d="M223.505 349.576H112.177C110.289 349.576 108.726 348.078 108.661 346.19C108.661 344.302 110.159 342.805 112.112 342.805H223.44C225.328 342.805 226.89 344.302 226.89 346.19C226.89 348.078 225.393 349.576 223.505 349.576Z" fill="white"/>
<path d="M362.698 438.508H337.828V137.076L362.437 135.318L362.698 438.508Z" fill="white"/>
<path d="M338.674 437.727H361.852L361.656 136.164L338.674 137.792V437.727ZM362.698 439.289H337.828C337.372 439.289 337.047 438.898 337.047 438.508V137.076C337.047 136.62 337.372 136.294 337.763 136.229L362.372 134.536C362.568 134.536 362.828 134.602 362.958 134.732C363.154 134.927 363.219 135.122 363.219 135.318L363.479 438.508C363.479 438.703 363.414 438.898 363.219 439.029C363.089 439.224 362.893 439.289 362.698 439.289Z" fill="black"/>
<path d="M429.299 438.508H362.698C362.568 438.508 362.438 438.312 362.438 438.182V135.708C362.438 135.513 362.568 135.318 362.698 135.318L429.299 138.833C429.43 138.833 429.56 138.964 429.56 139.159V438.182C429.56 438.312 429.43 438.508 429.299 438.508Z" fill="#99B9FF"/>
<path d="M363.219 437.727H428.714V139.615L363.219 136.164V437.727ZM429.299 439.289H362.698C362.112 439.289 361.656 438.768 361.656 438.182V135.708C361.656 135.383 361.786 135.057 361.982 134.862C362.177 134.667 362.438 134.536 362.763 134.536L429.365 138.052C429.885 138.052 430.341 138.573 430.341 139.159V438.182C430.341 438.768 429.885 439.289 429.299 439.289Z" fill="black"/>
<path d="M407.425 281.281C406.969 281.281 406.644 280.891 406.644 280.435V158.039C406.644 157.583 406.969 157.258 407.425 157.258C407.881 157.258 408.206 157.583 408.206 158.039V280.435C408.206 280.891 407.881 281.281 407.425 281.281Z" fill="#CADDFF"/>
<path d="M386.331 237.662C385.94 237.662 385.55 237.271 385.55 236.815V200.747C385.55 200.292 385.94 199.966 386.331 199.966C386.787 199.966 387.177 200.292 387.177 200.747V236.815C387.177 237.271 386.787 237.662 386.331 237.662Z" fill="#CADDFF"/>
<path d="M386.331 361.49C385.94 361.49 385.55 361.099 385.55 360.643V298.339C385.55 297.948 385.94 297.557 386.331 297.557C386.787 297.557 387.177 297.948 387.177 298.339V360.643C387.177 361.099 386.787 361.49 386.331 361.49Z" fill="#CADDFF"/>
<path d="M278.909 438.508H254.169V213.508L278.778 205.826L278.909 438.508Z" fill="white"/>
<path d="M255.015 437.727H278.127L277.997 206.867L255.015 214.094V437.727ZM278.909 439.289H254.169C253.713 439.289 253.388 438.964 253.388 438.508V213.508C253.388 213.117 253.583 212.857 253.974 212.727L278.518 205.044C278.778 204.979 279.039 205.044 279.234 205.175C279.429 205.305 279.56 205.565 279.56 205.826L279.69 438.508C279.69 438.768 279.625 438.964 279.494 439.094C279.364 439.224 279.104 439.289 278.909 439.289Z" fill="black"/>
<path d="M345.64 438.508H279.039C278.909 438.508 278.778 438.378 278.778 438.247V206.086C278.778 205.956 278.909 205.826 279.039 205.826L345.64 208.495C345.771 208.495 345.901 208.625 345.901 208.755V438.247C345.901 438.378 345.771 438.508 345.64 438.508Z" fill="#99B9FF"/>
<path d="M279.56 437.727H345.054V209.276L279.56 206.672V437.727ZM345.64 439.289H279.039C278.453 439.289 277.997 438.833 277.997 438.247V206.086C277.997 205.826 278.062 205.5 278.323 205.305C278.518 205.109 278.778 205.044 279.104 205.044L345.705 207.714C346.226 207.714 346.682 208.169 346.682 208.755V438.247C346.682 438.833 346.226 439.289 345.64 439.289Z" fill="black"/>
<path d="M312.373 327.701C311.917 327.701 311.526 327.31 311.526 326.854V223.794C311.526 223.339 311.917 223.013 312.373 223.013C312.763 223.013 313.154 223.339 313.154 223.794V326.854C313.154 327.31 312.763 327.701 312.373 327.701Z" fill="#CADDFF"/>
<path d="M294.795 258.234C294.339 258.234 293.948 257.844 293.948 257.453V239.875C293.948 239.419 294.339 239.094 294.795 239.094C295.185 239.094 295.576 239.419 295.576 239.875V257.453C295.576 257.844 295.185 258.234 294.795 258.234Z" fill="#CADDFF"/>
<path d="M294.795 374.836C294.339 374.836 293.948 374.445 293.948 373.99V286.49C293.948 286.034 294.339 285.708 294.795 285.708C295.185 285.708 295.576 286.034 295.576 286.49V373.99C295.576 374.445 295.185 374.836 294.795 374.836Z" fill="#CADDFF"/>
<path d="M329.951 292.87C329.495 292.87 329.104 292.479 329.104 292.088V274.51C329.104 274.055 329.495 273.729 329.951 273.729C330.407 273.729 330.732 274.055 330.732 274.51V292.088C330.732 292.479 330.407 292.87 329.951 292.87Z" fill="#CADDFF"/>
<path d="M195.705 438.508H171.161V309.211L195.705 303.872V438.508Z" fill="white"/>
<path d="M171.943 437.727H194.925V304.849L171.943 309.797V437.727ZM195.706 439.289H171.162C170.706 439.289 170.315 438.964 170.315 438.508V309.211C170.315 308.82 170.576 308.495 170.966 308.43L195.576 303.091C195.836 303.026 196.032 303.091 196.227 303.221C196.422 303.417 196.552 303.612 196.552 303.872V438.508C196.552 438.964 196.162 439.289 195.706 439.289Z" fill="black"/>
<path d="M262.828 438.508H195.706V304.133C195.706 304.003 195.836 303.872 196.032 303.872L262.828 306.086V438.508Z" fill="#99B9FF"/>
<path d="M196.552 437.727H262.047V306.867L196.552 304.654V437.727ZM263.675 439.289H194.925V304.133C194.925 303.872 195.055 303.547 195.25 303.352C195.446 303.156 195.771 303.091 196.032 303.091L263.675 305.305V439.289Z" fill="black"/>
<path d="M213.544 401.008C213.153 401.008 212.763 400.617 212.763 400.161V319.953C212.763 319.497 213.153 319.172 213.544 319.172C214 319.172 214.39 319.497 214.39 319.953V400.161C214.39 400.617 214 401.008 213.544 401.008Z" fill="#CADDFF"/>
<path d="M248.765 410.383C248.31 410.383 247.919 409.992 247.919 409.536V329.328C247.919 328.872 248.31 328.547 248.765 328.547C249.221 328.547 249.547 328.872 249.547 329.328V409.536C249.547 409.992 249.221 410.383 248.765 410.383Z" fill="#CADDFF"/>
<path d="M231.187 378.938C230.731 378.938 230.341 378.547 230.341 378.156V361.685C230.341 361.294 230.731 360.904 231.187 360.904C231.578 360.904 231.968 361.294 231.968 361.685V378.156C231.968 378.547 231.578 378.938 231.187 378.938Z" fill="#CADDFF"/>
<path d="M113.023 438.508H88.2188V374.38L112.828 369.562L113.023 438.508Z" fill="white"/>
<path d="M88.9997 437.727H112.242L111.981 370.539L88.9997 375.031V437.727ZM113.023 439.289H88.2184C87.7627 439.289 87.3721 438.964 87.3721 438.508V374.38C87.3721 373.99 87.6976 373.664 88.0231 373.599L112.632 368.781C112.893 368.781 113.153 368.846 113.284 368.977C113.479 369.107 113.609 369.367 113.609 369.562L113.869 438.508C113.869 438.768 113.739 438.964 113.609 439.094C113.479 439.224 113.218 439.289 113.023 439.289Z" fill="black"/>
<path d="M179.69 438.508H113.023C112.893 438.508 112.828 438.443 112.828 438.312V369.823C112.828 369.693 112.893 369.562 113.023 369.562L179.69 370.669C179.82 370.669 179.885 370.799 179.885 370.93V438.312C179.885 438.443 179.82 438.508 179.69 438.508Z" fill="#99B9FF"/>
<path d="M113.609 437.727H179.104V371.451L113.609 370.409V437.727ZM179.69 439.289H113.023C112.437 439.289 111.981 438.833 111.981 438.312V369.823C111.981 369.562 112.112 369.302 112.307 369.107C112.502 368.911 112.763 368.781 113.023 368.781L179.69 369.888C180.276 369.888 180.731 370.344 180.731 370.93V438.312C180.731 438.833 180.276 439.289 179.69 439.289Z" fill="black"/>
<path d="M159.638 423.013C159.183 423.013 158.792 422.688 158.792 422.232V381.411C158.792 380.956 159.183 380.63 159.638 380.63C160.094 380.63 160.42 380.956 160.42 381.411V422.232C160.42 422.688 160.094 423.013 159.638 423.013Z" fill="#CADDFF"/>
<path d="M138.544 408.495C138.088 408.495 137.763 408.104 137.763 407.714V395.669C137.763 395.213 138.088 394.823 138.544 394.823C139 394.823 139.39 395.213 139.39 395.669V407.714C139.39 408.104 139 408.495 138.544 408.495Z" fill="#CADDFF"/>
<path d="M30.2764 438.508H5.47168V404.914L30.0811 400.812L30.2764 438.508Z" fill="white"/>
<path d="M6.25293 437.727H29.4951L29.2347 401.789L6.25293 405.63V437.727ZM30.2764 439.289H5.47168C5.01596 439.289 4.69043 438.964 4.69043 438.508V404.914C4.69043 404.523 4.95085 404.198 5.34148 404.133L29.9508 400.031C30.1462 400.031 30.4066 400.096 30.6019 400.227C30.7321 400.357 30.8623 400.617 30.8623 400.812L31.1227 438.508C31.1227 438.703 30.9925 438.964 30.8623 439.094C30.7321 439.224 30.5368 439.289 30.2764 439.289Z" fill="black"/>
<path d="M96.943 438.508H30.2764C30.1462 438.508 30.0811 438.443 30.0811 438.378V400.943C30.0811 400.878 30.1462 400.812 30.2764 400.812L96.943 401.398C97.0732 401.398 97.1383 401.464 97.1383 401.529V438.378C97.1383 438.443 97.0732 438.508 96.943 438.508Z" fill="#99B9FF"/>
<path d="M30.862 437.727H96.3568V402.245L30.862 401.659V437.727ZM96.9427 439.289H30.276C29.6901 439.289 29.2344 438.898 29.2344 438.378V400.943C29.2344 400.747 29.3646 400.487 29.4948 400.357C29.6901 400.161 30.0156 400.031 30.276 400.031L96.9427 400.617C97.5286 400.617 97.9844 401.008 97.9844 401.529V438.378C97.9844 438.898 97.5286 439.289 96.9427 439.289Z" fill="black"/>
<path d="M76.8906 430.435C76.4349 430.435 76.1094 430.044 76.1094 429.589V407.323C76.1094 406.867 76.4349 406.477 76.8906 406.477C77.3464 406.477 77.6719 406.867 77.6719 407.323V429.589C77.6719 430.044 77.3464 430.435 76.8906 430.435Z" fill="#CADDFF"/>
<path d="M55.7969 422.492C55.3411 422.492 55.0156 422.102 55.0156 421.646V415.07C55.0156 414.615 55.3411 414.289 55.7969 414.289C56.2526 414.289 56.6432 414.615 56.6432 415.07V421.646C56.6432 422.102 56.2526 422.492 55.7969 422.492Z" fill="#CADDFF"/>
<path d="M123.245 334.927L120.836 356.216L130.016 359.992L133.401 336.815L123.245 334.927Z" fill="white"/>
<path d="M121.682 355.695L129.364 358.885L132.489 337.401L123.961 335.839L121.682 355.695ZM130.015 360.773C129.885 360.773 129.82 360.773 129.69 360.708L120.51 356.932C120.185 356.802 119.989 356.477 120.054 356.151L122.463 334.862C122.463 334.602 122.594 334.406 122.789 334.276C122.984 334.146 123.179 334.146 123.44 334.146L133.531 336.034C133.987 336.099 134.247 336.49 134.182 336.88L130.797 360.122C130.797 360.383 130.601 360.578 130.406 360.708C130.276 360.773 130.146 360.773 130.015 360.773Z" fill="black"/>
<path d="M118.687 354.198C118.427 356.216 117.971 359.992 117.906 363.313C117.906 365.461 119.469 367.219 121.617 367.479C127.607 368.26 141.148 369.107 152.737 368.065C153.518 368 154.951 367.414 155.341 365.461C156.643 358.885 145.055 357.258 132.424 352.505C131.904 352.375 131.383 352.44 130.992 352.831L129.625 354.133C128.258 355.435 126.24 355.826 124.482 355.044L120.315 353.287C119.599 353.026 118.818 353.482 118.687 354.198Z" fill="#99B9FF"/>
<path d="M119.468 354.328C119.208 356.281 118.752 359.992 118.687 363.313C118.687 365.005 119.989 366.503 121.682 366.698C127.867 367.479 141.213 368.26 152.672 367.219C152.932 367.219 154.169 367.024 154.56 365.266C155.341 361.164 150.132 359.276 140.757 356.216C137.958 355.305 135.093 354.393 132.164 353.287C131.903 353.221 131.708 353.221 131.513 353.417L130.146 354.719C128.583 356.216 126.239 356.672 124.156 355.761L119.989 354.068C119.859 354.003 119.729 354.003 119.664 354.068C119.599 354.068 119.534 354.198 119.468 354.328ZM140.692 369.302C132.88 369.302 125.653 368.781 121.487 368.26C118.948 367.935 117.06 365.852 117.125 363.313C117.125 359.927 117.646 356.086 117.906 354.133C117.971 353.482 118.362 352.961 118.882 352.701C119.403 352.375 120.054 352.375 120.64 352.57L124.807 354.328C126.239 354.914 127.932 354.654 129.039 353.547L130.406 352.245C130.992 351.659 131.903 351.464 132.685 351.789C135.679 352.896 138.479 353.807 141.213 354.719C150.198 357.583 157.229 359.862 156.122 365.591C155.666 367.805 154.039 368.716 152.802 368.846C148.896 369.172 144.729 369.302 140.692 369.302Z" fill="black"/>
<path d="M117.906 362.857C117.906 362.857 117.906 363.182 117.906 363.313C117.906 365.461 119.469 367.219 121.617 367.479C127.607 368.26 141.148 369.107 152.737 368.065C153.518 368 154.951 367.414 155.341 365.461C155.471 364.875 155.406 363.768 155.406 363.768L154.56 363.833C142.841 364.354 131.122 364.094 119.469 362.987L117.906 362.857Z" fill="white"/>
<path d="M118.752 363.703C118.883 365.266 120.119 366.503 121.682 366.698C127.867 367.479 141.213 368.26 152.672 367.219C152.932 367.219 154.169 367.024 154.56 365.266C154.56 365.135 154.56 364.875 154.625 364.615C142.906 365.201 131.057 364.875 119.403 363.768L118.752 363.703ZM140.692 369.302C132.88 369.302 125.653 368.781 121.487 368.26C118.948 367.935 117.06 365.852 117.125 363.313V362.792C117.125 362.596 117.19 362.401 117.385 362.206C117.58 362.076 117.776 362.01 117.971 362.01L119.599 362.206C131.122 363.313 142.906 363.573 154.494 362.987H155.341C155.797 362.987 156.122 363.313 156.187 363.703C156.187 363.833 156.252 364.94 156.122 365.591C155.666 367.805 154.039 368.716 152.802 368.846C148.896 369.172 144.729 369.302 140.692 369.302Z" fill="black"/>
<path d="M135.355 360.383C135.094 360.383 134.899 360.318 134.769 360.188C134.443 359.862 134.443 359.341 134.769 359.016L139.196 354.654C139.521 354.328 140.042 354.328 140.368 354.654C140.628 354.979 140.628 355.5 140.368 355.76L135.875 360.188C135.745 360.318 135.55 360.383 135.355 360.383Z" fill="black"/>
<path d="M139.716 360.839C139.521 360.839 139.26 360.773 139.13 360.643C138.804 360.318 138.804 359.797 139.13 359.536L142.646 355.891C142.971 355.565 143.492 355.565 143.817 355.826C144.143 356.151 144.143 356.672 143.817 356.997L140.302 360.643C140.106 360.773 139.911 360.839 139.716 360.839Z" fill="black"/>
<path d="M156.578 194.628C156.578 194.628 150.979 197.818 148.831 216.568C146.618 235.318 147.334 257.453 132.164 279.393C120.055 296.906 121.162 326.464 119.404 345.799C119.274 346.776 119.99 347.557 120.966 347.622L132.555 348.013C133.336 348.013 133.987 347.557 134.248 346.841C136.266 340.526 146.618 309.862 158.206 292.154C170.511 273.339 185.42 224.641 185.42 224.641C185.42 224.641 182.62 212.336 182.229 200.552C181.839 188.768 156.578 194.628 156.578 194.628Z" fill="black"/>
<path d="M225.003 271.776L220.12 292.674L228.779 297.427L234.834 274.771L225.003 271.776Z" fill="white"/>
<path d="M221.031 292.219L228.258 296.255L233.857 275.292L225.589 272.818L221.031 292.219ZM228.779 298.208C228.649 298.208 228.518 298.208 228.388 298.143L219.729 293.326C219.404 293.195 219.208 292.805 219.339 292.479L224.221 271.581C224.287 271.385 224.417 271.19 224.612 271.125C224.807 270.995 225.003 270.93 225.263 270.995L235.094 273.99C235.484 274.12 235.745 274.576 235.615 274.966L229.56 297.622C229.495 297.883 229.3 298.078 229.104 298.143C228.974 298.208 228.909 298.208 228.779 298.208Z" fill="black"/>
<path d="M219.078 291.438C218.753 293.456 216.93 297.297 216.93 300.617C216.865 302.701 218.492 304.523 220.575 304.784C226.565 305.565 241.539 306.281 253.128 305.24C253.909 305.175 255.276 304.589 255.667 302.635C256.969 296.125 245.445 294.497 232.75 289.745C232.294 289.55 231.708 289.68 231.318 290.005L229.95 291.307C228.583 292.609 226.565 293 224.807 292.284L220.706 290.526C219.99 290.201 219.143 290.656 219.078 291.438Z" fill="#99B9FF"/>
<path d="M219.859 291.503C219.729 292.349 219.403 293.325 219.013 294.497C218.427 296.385 217.711 298.664 217.711 300.617C217.711 302.31 218.948 303.742 220.705 304.003C226.109 304.654 241.148 305.5 253.062 304.458C253.257 304.458 254.56 304.263 254.885 302.505C255.731 298.339 250.458 296.45 241.083 293.391C238.349 292.544 235.484 291.568 232.489 290.461C232.294 290.396 232.034 290.461 231.903 290.591L230.536 291.893C228.909 293.456 226.565 293.846 224.547 293L220.38 291.242C220.185 291.177 220.119 291.242 220.054 291.242C219.989 291.307 219.859 291.372 219.859 291.503ZM240.106 306.542C232.294 306.542 224.677 306.086 220.51 305.565C217.971 305.24 216.083 303.091 216.083 300.617C216.148 298.404 216.864 295.995 217.515 294.042C217.841 292.935 218.166 292.023 218.297 291.307C218.362 290.721 218.687 290.2 219.273 289.875C219.794 289.615 220.445 289.549 220.966 289.81L225.132 291.568C226.63 292.154 228.257 291.828 229.429 290.786L230.797 289.484C231.382 288.898 232.294 288.703 233.075 288.964C236.005 290.07 238.869 291.047 241.604 291.893C250.523 294.823 257.619 297.102 256.448 302.831C256.057 304.979 254.429 305.956 253.192 306.021C249.156 306.411 244.599 306.542 240.106 306.542Z" fill="black"/>
<path d="M217.256 299.966C217.256 299.966 217.19 300.292 217.19 300.487C217.19 302.57 218.818 304.393 220.901 304.654C226.891 305.37 241.539 306.281 253.128 305.24C253.909 305.175 255.276 304.589 255.667 302.635C255.797 302.05 255.732 300.943 255.732 300.943L254.886 301.008C243.232 301.594 231.513 301.333 219.86 300.161L217.256 299.966Z" fill="white"/>
<path d="M218.037 300.813C218.167 302.375 219.404 303.612 221.032 303.872C226.24 304.523 240.953 305.565 253.063 304.458C253.258 304.458 254.56 304.263 254.886 302.505C254.951 302.31 254.951 302.05 254.951 301.789C243.232 302.375 231.448 302.115 219.795 301.008L218.037 300.813ZM241.279 306.542C232.555 306.542 224.417 305.891 220.836 305.435C218.297 305.109 216.409 302.961 216.409 300.487V299.966C216.409 299.771 216.539 299.51 216.67 299.38C216.865 299.25 217.06 299.185 217.321 299.185L219.925 299.38C231.513 300.487 243.232 300.813 254.886 300.227L255.667 300.161C256.123 300.161 256.513 300.487 256.513 300.943C256.578 301.073 256.644 302.115 256.448 302.831C256.058 304.979 254.43 305.956 253.193 306.021C249.352 306.346 245.25 306.542 241.279 306.542Z" fill="black"/>
<path d="M235.68 297.622C235.484 297.622 235.289 297.557 235.094 297.362C234.833 297.037 234.833 296.581 235.094 296.255L239.586 291.893C239.846 291.568 240.367 291.568 240.693 291.893C241.018 292.154 241.018 292.675 240.693 293L236.266 297.362C236.07 297.557 235.875 297.622 235.68 297.622Z" fill="black"/>
<path d="M240.042 298.078C239.847 298.078 239.652 298.013 239.521 297.818C239.196 297.557 239.131 297.036 239.456 296.711L243.037 293.065C243.362 292.74 243.818 292.74 244.144 293.065C244.469 293.391 244.469 293.846 244.209 294.172L240.628 297.818C240.498 298.013 240.237 298.078 240.042 298.078Z" fill="black"/>
<path d="M178.974 227.961C178.974 227.961 205.081 225.943 234.183 210.513C235.094 210.057 235.615 211.425 235.094 212.271C233.662 214.55 232.881 218 230.667 223.859C227.998 231.086 222.269 268.391 220.381 280.044C220.25 281.086 221.032 281.997 222.138 282.063L233.336 282.388C234.052 282.453 234.703 282.063 234.964 281.412C239 273.078 265.433 207.649 264.391 195.474C263.349 182.323 248.115 183.169 241.735 182.779C235.159 182.388 175.589 193.391 175.589 193.391L178.974 227.961Z" fill="black"/>
<path d="M99.5473 208.69C100.459 207.648 101.631 206.412 102.607 205.435C103.909 204.198 108.271 195.865 108.271 195.865L115.823 197.948C115.823 197.948 112.308 204.068 113.154 207.128C113.935 209.992 114.586 215.982 110.355 220.344C109.899 220.8 108.792 220.93 108.467 220.865C107.36 220.604 107.36 219.107 107.881 218.13L109.378 215.331C109.508 215.135 109.313 214.81 109.053 214.875C107.881 215.005 105.407 215.721 102.803 218.912C100.784 221.385 96.8129 226.854 95.4458 225.943C93.0369 224.315 94.5994 214.55 99.5473 208.69Z" fill="white"/>
<path d="M100.197 209.211C96.6168 213.443 94.7287 220.083 95.2496 223.664C95.3147 224.445 95.5751 225.031 95.8355 225.227C96.8772 225.096 99.872 221.32 101.109 219.693C101.5 219.237 101.89 218.781 102.151 218.456C104.885 215.07 107.554 214.289 108.921 214.094C109.377 214.029 109.768 214.224 110.028 214.55C110.289 214.94 110.289 215.331 110.093 215.721L108.596 218.521C108.336 218.977 108.27 219.563 108.401 219.888C108.466 220.018 108.531 220.083 108.661 220.083C108.856 220.148 109.572 220.018 109.768 219.758C114.26 215.135 112.697 208.625 112.372 207.323C111.656 204.719 113.674 200.357 114.651 198.469L108.661 196.776C107.619 198.794 104.364 204.849 103.192 206.021C102.216 206.997 101.044 208.234 100.197 209.211ZM95.7704 226.854C95.51 226.854 95.2496 226.789 94.9892 226.594C94.273 226.138 93.8173 225.227 93.622 223.859C93.1012 219.953 94.9892 212.922 98.9605 208.234C99.872 207.128 101.044 205.891 102.086 204.849C102.932 204.003 105.927 198.664 107.554 195.474C107.75 195.148 108.14 194.953 108.466 195.083L116.083 197.232C116.278 197.297 116.474 197.427 116.604 197.688C116.669 197.883 116.669 198.143 116.539 198.339C115.627 199.966 113.283 204.654 113.934 206.932C115.041 210.969 114.846 216.763 110.94 220.865C110.224 221.646 108.856 221.776 108.27 221.646C107.684 221.516 107.229 221.125 106.968 220.539C106.578 219.758 106.643 218.651 107.164 217.74L108.205 215.917C107.033 216.242 105.276 217.219 103.388 219.432C103.127 219.823 102.802 220.214 102.411 220.669C99.4814 224.315 97.398 226.854 95.7704 226.854Z" fill="black"/>
<path d="M281.188 114.745L276.24 106.542C275.458 105.24 272.919 104.849 271.682 105.76C244.013 126.138 214.586 117.805 210.029 116.763C198.766 114.094 193.037 113.703 184.117 113.117C171.096 112.336 152.346 119.823 139.781 132.258C129.69 142.154 112.568 174.315 104.82 196.646C104.495 197.557 104.951 198.599 105.797 199.055L113.609 203.026C114.586 203.547 115.823 203.156 116.344 202.18C120.315 194.823 137.438 164.224 155.471 154.133C156.774 153.417 158.727 154.198 158.662 155.695C158.401 160.383 155.471 177.831 154.56 193.977C154.43 196.06 155.927 197.948 158.076 198.339L165.953 199.771C179.625 202.961 192.516 199.445 198.18 197.427C199.872 196.841 200.719 195.214 200.979 193.391C201.435 190.396 207.555 166.503 218.622 150.682C219.99 148.664 222.138 147.297 224.612 147.167C234.508 146.581 262.633 142.674 281.057 117.219C281.578 116.503 281.643 115.526 281.188 114.745Z" fill="#5479F7"/>
<path d="M182.164 113.898C168.948 113.898 151.696 121.646 140.302 132.844C130.732 142.284 113.545 173.99 105.602 196.841C105.407 197.427 105.667 198.078 106.188 198.339L114 202.31C114.586 202.635 115.302 202.375 115.628 201.854C120.38 193 137.177 163.508 155.016 153.482C155.992 152.961 157.295 152.961 158.271 153.547C159.052 154.068 159.508 154.849 159.508 155.76C159.378 157.453 158.922 160.839 158.401 165.07C157.36 172.948 155.927 183.69 155.407 193.977C155.276 195.734 156.513 197.297 158.206 197.557L166.084 199.055C179.365 202.049 191.735 198.859 197.92 196.711C199.482 196.125 200.003 194.562 200.198 193.26C200.589 190.591 206.513 166.503 217.972 150.227C219.599 147.883 221.943 146.516 224.547 146.32C235.354 145.734 262.438 141.568 280.407 116.763C280.732 116.242 280.797 115.656 280.472 115.135L275.589 106.997C275.328 106.542 274.742 106.216 274.091 106.086C273.31 105.956 272.594 106.086 272.138 106.411C254.821 119.172 232.88 123.143 210.485 117.674C210.224 117.609 210.029 117.544 209.834 117.479C198.831 114.94 193.167 114.484 184.117 113.964C183.466 113.898 182.815 113.898 182.164 113.898ZM114.521 204.068C114.13 204.068 113.675 203.938 113.219 203.742L105.472 199.771C104.17 199.12 103.649 197.688 104.104 196.385C112.112 173.273 129.495 141.242 139.196 131.672C151.37 119.628 170.315 111.49 184.183 112.336C193.362 112.922 199.026 113.312 210.224 115.982C210.354 115.982 210.615 116.047 210.875 116.112C233.141 121.581 253.974 117.74 271.162 105.109C272.008 104.523 273.18 104.328 274.417 104.523C275.524 104.784 276.5 105.37 276.956 106.151L281.839 114.289C282.49 115.331 282.425 116.698 281.709 117.674C263.349 143.065 235.68 147.297 224.612 147.948C222.594 148.078 220.641 149.185 219.274 151.073C208.141 167.023 202.151 191.242 201.826 193.521C201.435 195.865 200.263 197.557 198.44 198.208C192.06 200.422 179.43 203.742 165.758 200.552L157.946 199.12C155.407 198.664 153.649 196.451 153.779 193.911C154.365 183.495 155.797 172.753 156.774 164.875C157.36 160.643 157.815 157.323 157.88 155.63C157.88 155.305 157.62 155.044 157.425 154.914C156.969 154.589 156.318 154.589 155.862 154.849C138.349 164.68 121.748 193.846 117.06 202.57C116.539 203.482 115.563 204.068 114.521 204.068Z" fill="black"/>
<path d="M274.416 109.016C274.286 108.43 274.547 107.779 275.002 107.388C275.653 106.867 276.695 105.956 278.257 104.654C280.927 102.31 284.312 97.6224 287.242 96.2552C290.237 94.823 300.914 90.7214 302.672 91.5677C304.364 92.4792 303.518 94.4323 301.044 95.6042C298.635 96.7761 295.51 97.948 295.51 97.948C295.51 97.948 297.268 97.8177 298.57 99.836C299.872 101.854 298.049 102.701 298.83 103.677C299.807 104.979 299.481 106.477 298.7 107.128C296.942 108.56 294.794 105.63 293.231 108.69C292.125 110.773 289.52 112.206 284.182 113.182C282.75 113.443 281.382 113.964 280.145 114.745C279.625 115.07 278.974 115.07 278.453 114.81C277.216 114.094 275.002 112.401 274.416 109.016Z" fill="white"/>
<path d="M275.198 108.885C275.719 111.945 277.737 113.443 278.844 114.094C279.104 114.224 279.495 114.224 279.756 114.094C281.058 113.247 282.49 112.661 284.052 112.401C288.935 111.49 291.474 110.253 292.516 108.299C293.688 106.021 295.38 106.411 296.487 106.607C297.334 106.802 297.789 106.867 298.18 106.477C298.636 106.151 298.896 105.109 298.18 104.133C297.594 103.417 297.854 102.635 298.05 102.115C298.245 101.594 298.44 101.138 297.854 100.292C296.878 98.7291 295.576 98.7291 295.511 98.7291C295.12 98.7291 294.795 98.4687 294.729 98.0781C294.599 97.6875 294.86 97.362 295.185 97.1666C295.25 97.1666 298.375 95.9948 300.719 94.888C302.086 94.237 302.737 93.3906 302.737 92.8698C302.737 92.8047 302.737 92.5442 302.282 92.2838C300.914 91.763 291.409 95.1484 287.633 96.9713C285.875 97.7526 283.922 99.901 281.969 101.984C280.862 103.221 279.755 104.393 278.779 105.24C277.216 106.542 276.175 107.453 275.524 107.974C275.263 108.234 275.133 108.56 275.198 108.885ZM279.3 115.786C278.844 115.786 278.453 115.721 278.063 115.461C276.696 114.745 274.287 112.857 273.636 109.146C273.506 108.234 273.831 107.388 274.482 106.802C275.133 106.281 276.175 105.37 277.672 104.068C278.649 103.221 279.69 102.115 280.797 100.878C282.815 98.7291 284.899 96.5156 286.917 95.539C287.047 95.4739 300.524 89.6146 302.998 90.9166C303.844 91.3073 304.365 92.0885 304.365 92.9349C304.3 94.1718 303.193 95.4739 301.435 96.3203C300.198 96.9062 298.831 97.4922 297.789 97.8828C298.245 98.2083 298.766 98.7291 299.222 99.4453C300.198 100.943 299.808 101.984 299.547 102.7C299.417 103.091 299.417 103.156 299.482 103.221C300.719 104.849 300.328 106.802 299.222 107.714C298.18 108.56 297.008 108.365 296.162 108.169C295.12 107.974 294.599 107.844 293.948 109.081C292.646 111.49 289.782 112.922 284.313 113.964C283.011 114.224 281.774 114.68 280.602 115.396C280.211 115.656 279.755 115.786 279.3 115.786Z" fill="black"/>
<path d="M202.932 91.0469L188.284 115.005C188.088 115.266 185.94 115.201 183.466 115.461C182.359 115.591 181.187 115.721 180.211 115.917C179.364 116.047 179.169 117.023 179.82 117.479L182.489 119.237C187.958 122.818 194.469 124.641 201.044 124.25C202.867 124.12 204.625 123.794 206.187 123.339L211.786 121.581C212.633 121.32 212.633 120.148 211.786 119.888L204.625 117.74L210.68 105.109L202.932 91.0469Z" fill="white"/>
<path d="M202.867 92.6745L188.935 115.396C188.935 115.461 188.935 115.461 188.935 115.461C188.544 115.917 187.959 115.982 186.266 116.047C185.485 116.112 184.508 116.112 183.597 116.242C182.62 116.307 181.513 116.503 180.341 116.698C180.276 116.698 180.276 116.698 180.276 116.763C180.211 116.828 180.276 116.828 180.276 116.828L182.88 118.521C188.349 122.102 194.794 123.859 200.979 123.404C202.802 123.273 204.495 123.013 205.927 122.557L211.526 120.799C211.591 120.799 211.591 120.799 211.591 120.734C211.591 120.669 211.591 120.669 211.526 120.669L204.43 118.521C204.169 118.456 203.974 118.326 203.909 118.065C203.844 117.87 203.844 117.609 203.909 117.414L209.768 105.174L202.867 92.6745ZM199.156 125.096C193.232 125.096 187.177 123.273 182.034 119.888L179.43 118.195C178.844 117.805 178.518 117.089 178.649 116.437C178.844 115.721 179.365 115.201 180.081 115.135C181.318 114.875 182.425 114.745 183.401 114.68C184.443 114.549 185.354 114.484 186.136 114.484C186.722 114.419 187.373 114.419 187.698 114.354L202.216 90.6562C202.347 90.3958 202.607 90.2656 202.932 90.2656C203.193 90.2656 203.453 90.4609 203.584 90.6562L211.396 104.784C211.526 104.979 211.526 105.24 211.396 105.5L205.797 117.284L212.047 119.107C212.763 119.367 213.219 120.018 213.219 120.734C213.219 121.451 212.763 122.102 212.047 122.362L206.448 124.12C204.886 124.576 203.063 124.901 201.11 125.031C200.459 125.031 199.807 125.096 199.156 125.096Z" fill="black"/>
<path d="M209.442 105.63C210.224 105.695 211.005 105.76 211.786 105.695L213.284 105.63C213.284 105.63 221.552 104.523 222.854 102.505C224.221 100.487 221.422 93.1303 221.422 93.1303C222.659 92.1537 222.984 90.9167 222.659 90.461C222.398 90.0704 220.575 89.4193 219.794 88.8985C219.208 88.4428 217.841 84.9271 217.255 83.4297C217.255 83.4297 216.148 77.4402 206.448 78.2214C184.182 79.9792 200.198 100.292 200.198 100.292C200.523 100.682 200.914 101.073 201.239 101.464L209.442 105.63Z" fill="white"/>
<path d="M211.135 106.542C209.833 106.542 208.596 106.346 207.424 106.021C207.034 105.891 206.773 105.5 206.904 105.044C206.969 104.654 207.424 104.393 207.88 104.523C209.117 104.849 210.419 104.979 211.786 104.914L213.154 104.849C216.474 104.393 221.422 103.286 222.203 102.115C222.984 100.943 221.747 96.3203 220.641 93.3906C220.51 93.0651 220.641 92.7396 220.901 92.4792C221.747 91.8932 221.943 91.1771 221.943 90.9167C221.747 90.7865 221.227 90.526 220.901 90.3958C220.315 90.0703 219.729 89.8099 219.339 89.5495C218.753 89.0937 217.971 87.5963 216.474 83.6901C216.474 83.625 216.474 83.625 216.474 83.5599C216.409 83.3646 215.302 78.2865 206.513 79.0026C201.109 79.4583 197.659 80.9557 196.292 83.4948C193.948 87.8568 197.724 94.4323 199.937 98.4036L200.198 98.7292C200.393 99.1198 200.263 99.6406 199.872 99.8359C199.482 100.031 198.961 99.901 198.766 99.5104L198.57 99.1849C196.161 94.9531 192.125 87.8568 194.859 82.7786C196.487 79.7187 200.393 77.8958 206.383 77.4401C216.018 76.6588 217.841 82.3229 218.036 83.1693C219.469 86.9453 220.055 88.0521 220.315 88.2474C220.575 88.4427 221.096 88.7031 221.617 88.9635C222.529 89.3542 223.115 89.6797 223.375 90.0703C223.831 90.7865 223.57 92.2187 222.333 93.3906C223.049 95.4088 224.872 100.943 223.57 102.961C222.073 105.174 214.781 106.216 213.349 106.411H213.284L211.852 106.542C211.591 106.542 211.331 106.542 211.135 106.542Z" fill="black"/>
<path d="M201.891 75.6173C204.3 75.1615 207.099 75.4871 208.271 75.0964C210.159 74.4454 210.159 72.297 212.829 72.1017C215.172 71.9063 217.386 72.3621 218.558 74.1199C218.753 74.4454 218.948 74.7709 219.079 75.0964C220.967 80.1746 218.362 82.5834 217.256 83.4298C217.256 83.4298 210.029 86.8152 208.792 87.7918C207.62 88.7032 206.253 90.9167 207.034 94.1068C207.099 94.4975 206.904 94.8881 206.513 95.0834C206.123 95.3438 205.537 95.2136 205.276 94.823C204.365 93.5209 202.412 91.1121 200.98 91.6329C199.287 92.3491 198.701 96.5157 201.826 97.5574C202.737 97.8829 203.063 99.1199 202.412 99.836C201.826 100.487 200.914 100.878 199.612 100.552C199.612 100.552 191.865 95.0834 190.954 87.922C190.042 80.6954 198.701 76.2032 201.891 75.6173Z" fill="black"/>
<path d="M221.291 12.987C220.445 12.987 219.599 13.3776 219.078 14.0937C218.687 14.6797 218.557 15.3958 218.687 16.112C218.752 16.8281 219.208 17.4141 219.794 17.8047C220.966 18.651 222.658 18.3906 223.505 17.1536C223.961 16.5677 224.091 15.8516 223.961 15.2005C223.83 14.4844 223.44 13.8333 222.854 13.4427C222.398 13.1172 221.877 12.987 221.291 12.987ZM221.291 19.888C220.445 19.888 219.599 19.6276 218.882 19.1068C217.906 18.4557 217.255 17.4792 217.06 16.3724C216.864 15.2656 217.125 14.1588 217.776 13.1823C219.143 11.2943 221.812 10.8385 223.765 12.1406C224.742 12.7917 225.328 13.7682 225.588 14.875C225.783 15.9818 225.523 17.1536 224.872 18.0651C224.026 19.237 222.658 19.888 221.291 19.888Z" fill="black"/>
<path d="M203.909 19.0417C203.453 19.0417 203.128 18.7161 203.128 18.2604L202.997 14.9401C202.932 14.4844 203.323 14.0938 203.779 14.0938C204.169 14.0938 204.56 14.4193 204.56 14.875L204.69 18.2604C204.755 18.651 204.365 19.0417 203.909 19.0417Z" fill="black"/>
<path d="M204.299 29.7187C203.909 29.7187 203.518 29.3281 203.518 28.9375L203.388 25.5521C203.388 25.0963 203.713 24.7708 204.169 24.7708C204.625 24.7057 204.95 25.0963 205.015 25.487L205.146 28.8724C205.146 29.3281 204.755 29.6536 204.364 29.7187H204.299Z" fill="black"/>
<path d="M196.943 22.9479C196.487 22.9479 196.161 22.6224 196.161 22.1667C196.096 21.776 196.487 21.3854 196.943 21.3854L200.328 21.2552C200.784 21.1901 201.174 21.5807 201.174 21.9713C201.174 22.4271 200.849 22.8177 200.393 22.8177L197.008 22.9479C196.943 22.9479 196.943 22.9479 196.943 22.9479Z" fill="black"/>
<path d="M207.75 22.5573C207.294 22.5573 206.968 22.2318 206.903 21.776C206.903 21.3203 207.229 20.9948 207.685 20.9297L211.135 20.8646C211.591 20.7995 211.916 21.1901 211.916 21.5807C211.981 22.0365 211.591 22.4271 211.2 22.4271L207.75 22.5573Z" fill="black"/>
<path d="M18.8178 232.193C18.4271 232.193 18.1016 231.867 18.0365 231.477C14.4558 210.839 15.8881 189.029 22.2032 168.456C23.7657 163.247 25.6537 158.169 27.8021 153.352C27.9975 152.896 28.4532 152.766 28.8438 152.896C29.2995 153.091 29.4949 153.547 29.2995 153.938C27.1511 158.755 25.2631 163.768 23.7006 168.912C17.5157 189.289 16.0834 210.839 19.6641 231.216C19.7292 231.672 19.4037 232.063 19.0131 232.128C18.948 232.128 18.8829 232.193 18.8178 232.193Z" fill="black"/>
<path d="M19.4038 234.992C19.0132 234.992 18.6877 234.732 18.5575 234.341C18.4273 233.43 18.232 232.453 18.0367 231.477C17.9715 231.086 18.2971 230.63 18.6877 230.565C19.1434 230.5 19.534 230.826 19.6643 231.216C19.7945 232.193 19.9898 233.104 20.1851 234.081C20.2502 234.471 19.9898 234.927 19.534 234.992C19.4689 234.992 19.4038 234.992 19.4038 234.992Z" fill="black"/>
<path d="M12.5025 244.367C12.1118 244.367 11.7863 244.107 11.7212 243.716C6.05716 217.154 8.07538 187.857 17.3853 161.164C17.5155 160.773 17.9712 160.513 18.4269 160.643C18.8176 160.839 19.078 161.294 18.8827 161.685C9.703 188.052 7.68476 217.089 13.2837 243.391C13.3488 243.781 13.0884 244.237 12.6327 244.302C12.5676 244.302 12.5025 244.367 12.5025 244.367Z" fill="black"/>
<path d="M279.951 157.193C279.69 157.193 279.43 157.063 279.3 156.867C279.039 156.477 279.104 156.021 279.495 155.76L302.933 138.573C303.258 138.313 303.779 138.378 304.039 138.768C304.3 139.094 304.235 139.615 303.844 139.875L280.407 156.997C280.276 157.128 280.146 157.193 279.951 157.193Z" fill="black"/>
<path d="M243.036 64.4844C242.776 64.4844 242.516 64.4193 242.385 64.1589C242.125 63.8334 242.19 63.3125 242.516 63.0521L302.346 19.3672C302.737 19.1068 303.193 19.1719 303.453 19.4974C303.713 19.823 303.648 20.3438 303.323 20.6042L243.492 64.3542C243.362 64.4844 243.167 64.4844 243.036 64.4844Z" fill="black"/>
<path d="M285.289 44.8229C285.093 44.8229 284.833 44.6927 284.638 44.4974C284.377 44.1719 284.442 43.651 284.833 43.3906L316.278 20.4089C316.669 20.1484 317.125 20.2135 317.45 20.5391C317.711 20.9297 317.58 21.3854 317.255 21.6458L285.81 44.6927C285.614 44.7578 285.484 44.8229 285.289 44.8229Z" fill="black"/>
<path d="M275.133 59.4063C274.612 59.4063 274.091 59.3412 273.571 59.1459C272.399 58.6901 271.487 57.8438 271.031 56.737C270.055 54.4584 271.097 51.7891 273.31 50.7474C273.766 50.6172 274.222 50.7474 274.417 51.1381C274.547 51.5938 274.417 52.0495 273.961 52.2448C272.529 52.8959 271.878 54.5886 272.529 56.086C272.789 56.8021 273.375 57.323 274.091 57.6485C274.808 57.9089 275.589 57.9089 276.305 57.5834C277.802 56.9323 278.453 55.1745 277.802 53.7422C277.607 53.2865 277.802 52.8308 278.193 52.6355C278.649 52.5052 279.104 52.7006 279.3 53.0912C280.276 55.3698 279.235 58.0391 276.956 59.0157C276.37 59.2761 275.784 59.4063 275.133 59.4063Z" fill="black"/>
<path d="M434.573 77.6354C434.573 110.773 407.359 137.596 373.765 137.596C340.237 137.596 312.958 110.773 312.958 77.6354C312.958 44.4323 340.237 17.6094 373.765 17.6094C407.359 17.6094 434.573 44.4323 434.573 77.6354Z" fill="black"/>
<path d="M373.765 18.3907C340.692 18.3907 313.804 44.9532 313.804 77.6355C313.804 110.253 340.692 136.815 373.765 136.815C406.838 136.815 433.791 110.253 433.791 77.6355C433.791 44.9532 406.838 18.3907 373.765 18.3907ZM373.765 138.443C339.846 138.443 312.177 111.164 312.177 77.6355C312.177 44.0417 339.846 16.7631 373.765 16.7631C407.75 16.7631 435.419 44.0417 435.419 77.6355C435.419 111.164 407.75 138.443 373.765 138.443Z" fill="black"/>
<path d="M427.086 77.6354C427.086 110.773 399.873 137.596 366.279 137.596C332.685 137.596 305.472 110.773 305.472 77.6354C305.472 44.4323 332.685 17.6094 366.279 17.6094C399.873 17.6094 427.086 44.4323 427.086 77.6354Z" fill="#5479F7"/>
<path d="M366.279 18.3907C333.206 18.3907 306.318 44.9532 306.318 77.6355C306.318 110.253 333.206 136.815 366.279 136.815C399.352 136.815 426.305 110.253 426.305 77.6355C426.305 44.9532 399.352 18.3907 366.279 18.3907ZM366.279 138.443C332.36 138.443 304.69 111.164 304.69 77.6355C304.69 44.1068 332.36 16.7631 366.279 16.7631C400.263 16.7631 427.867 44.1068 427.867 77.6355C427.867 111.164 400.263 138.443 366.279 138.443Z" fill="black"/>
<path d="M406.839 77.6355C406.839 99.7058 388.675 117.609 366.279 117.609C343.883 117.609 325.784 99.7058 325.784 77.6355C325.784 55.5001 343.883 37.5964 366.279 37.5964C388.675 37.5964 406.839 55.5001 406.839 77.6355Z" fill="white"/>
<path d="M386.591 77.6355C386.591 88.6381 377.477 97.6224 366.279 97.6224C355.081 97.6224 346.031 88.6381 346.031 77.6355C346.031 66.5677 355.081 57.5834 366.279 57.5834C377.477 57.5834 386.591 66.5677 386.591 77.6355Z" fill="#FF0000"/>
<path d="M365.628 78.3516L376.044 66.8281L377.607 68.3255L365.953 78.612C365.758 78.8073 365.498 78.5469 365.628 78.3516Z" fill="white"/>
<path d="M376.109 67.935L373.18 71.1901L376.435 68.3256L376.109 67.935ZM365.823 79.4584C365.563 79.4584 365.302 79.3933 365.107 79.198C364.716 78.8073 364.651 78.2214 365.042 77.8308L375.458 66.3073C375.589 66.112 375.849 66.0469 376.044 65.9818C376.24 65.9818 376.5 66.112 376.63 66.2422L378.193 67.8047C378.323 67.9349 378.453 68.1302 378.453 68.3907C378.453 68.586 378.323 68.7813 378.193 68.9115L366.474 79.198C366.279 79.3933 366.018 79.4584 365.823 79.4584Z" fill="black"/>
<path d="M376.044 68.3255C375.458 67.7396 375.458 66.763 376.044 66.1771L380.341 61.9453L382.554 64.0937L378.257 68.3255C377.606 68.9766 376.63 68.9766 376.044 68.3255Z" fill="white"/>
<path d="M380.341 63.1172L376.63 66.7631C376.304 67.0235 376.304 67.4792 376.63 67.8047C376.89 68.0652 377.411 68.0652 377.672 67.8047L381.382 64.0938L380.341 63.1172ZM377.151 69.6277C376.5 69.6277 375.914 69.3673 375.458 68.9115C374.547 68.0001 374.547 66.5678 375.458 65.6563L379.755 61.4246C380.08 61.099 380.601 61.099 380.927 61.4246L383.075 63.573C383.401 63.8985 383.401 64.3542 383.075 64.6797L378.778 68.9115C378.388 69.3673 377.802 69.6277 377.151 69.6277Z" fill="black"/>
<path d="M379.169 65.2656C378.127 64.224 378.127 62.5963 379.169 61.5547L429.234 12.1406C430.276 11.1641 431.968 11.1641 432.945 12.1406C433.987 13.1823 433.987 14.8099 432.945 15.8516L382.945 65.2656C381.903 66.3073 380.211 66.3073 379.169 65.2656Z" fill="white"/>
<path d="M431.122 12.2058C430.601 12.2058 430.146 12.4011 429.82 12.7266L379.755 62.1407C379.039 62.8568 379.039 64.0287 379.755 64.6798C380.471 65.3959 381.643 65.3959 382.359 64.6798L432.424 15.3308C433.14 14.6147 433.14 13.4428 432.424 12.7266C432.034 12.4011 431.578 12.2058 431.122 12.2058ZM381.057 66.8282C380.145 66.8282 379.234 66.5027 378.583 65.8517C377.932 65.2006 377.606 64.3542 377.606 63.4428C377.606 62.5313 377.932 61.685 378.583 61.0339L428.648 11.6199C430.015 10.2527 432.229 10.2527 433.531 11.6199C434.898 12.9219 434.898 15.0704 433.531 16.4376L383.466 65.8517C382.815 66.5027 381.968 66.8282 381.057 66.8282Z" fill="black"/>
<path d="M414.586 26.5938L413.024 19.1719C412.438 16.2422 413.349 13.1823 415.498 11.099L425.133 1.59377C425.458 1.26826 426.044 1.46356 426.175 1.91929L428.453 12.9219L414.586 26.5938Z" fill="#FF0000"/>
<path d="M425.459 2.37508L416.084 11.6199C414.13 13.573 413.284 16.3074 413.87 18.9766L415.107 25.0313L427.607 12.6615L425.459 2.37508ZM414.586 27.3751C414.521 27.3751 414.456 27.3751 414.391 27.3751C414.065 27.31 413.87 27.0496 413.805 26.7891L412.242 19.3022C411.591 16.1121 412.568 12.8568 414.912 10.5131L424.547 1.07299C424.938 0.682377 425.459 0.55216 425.979 0.682377C426.435 0.812577 426.826 1.26831 426.956 1.72404L429.235 12.7917C429.3 13.0522 429.235 13.3126 429.039 13.5079L415.172 27.1798C415.042 27.31 414.781 27.3751 414.586 27.3751Z" fill="black"/>
<path d="M418.362 30.3047L425.914 31.8021C428.844 32.4531 431.904 31.5417 434.052 29.3932L443.688 19.9531C444.013 19.5625 443.818 18.9766 443.362 18.9115L432.229 16.6328L418.362 30.3047Z" fill="#FF0000"/>
<path d="M419.99 29.849L426.045 31.0859C428.779 31.6068 431.578 30.7604 433.532 28.8724L442.841 19.6276L432.49 17.4792L419.99 29.849ZM427.737 32.7786C427.021 32.7786 426.37 32.7135 425.719 32.5833L418.167 31.0859C417.907 31.0208 417.646 30.8255 417.581 30.5C417.516 30.2396 417.581 29.9141 417.776 29.7187L431.644 16.0469C431.839 15.8516 432.099 15.7865 432.36 15.8516L443.493 18.1302C444.013 18.1953 444.469 18.5859 444.599 19.1068C444.729 19.5625 444.599 20.1484 444.274 20.474L434.638 29.9792C432.75 31.8021 430.276 32.7786 427.737 32.7786Z" fill="black"/>
<path d="M439.716 22.948C439.651 22.948 439.586 22.948 439.586 22.948L430.471 21.2553C430.016 21.1902 429.755 20.7995 429.82 20.3438C429.951 19.8881 430.341 19.6277 430.797 19.6928L439.846 21.3855C440.302 21.4506 440.563 21.8412 440.498 22.2969C440.432 22.6876 440.107 22.948 439.716 22.948Z" fill="black"/>
<path d="M436.005 26.5937C435.94 26.5937 435.94 26.5937 435.875 26.5937L426.825 24.901C426.37 24.8359 426.044 24.3802 426.174 23.9896C426.24 23.5338 426.63 23.2734 427.086 23.3385L436.2 25.0312C436.591 25.0963 436.917 25.487 436.786 25.9427C436.721 26.3333 436.396 26.5937 436.005 26.5937Z" fill="black"/>
<path d="M414.976 32.5182C414.781 32.5182 414.586 32.4531 414.455 32.3229L412.567 30.4349C412.242 30.1745 412.242 29.6537 412.567 29.3281C412.893 29.0026 413.414 29.0026 413.674 29.3281L415.562 31.2162C415.888 31.4766 415.888 31.9974 415.562 32.3229C415.432 32.4531 415.237 32.5182 414.976 32.5182Z" fill="black"/>
<path d="M417.19 30.4349C416.994 30.4349 416.734 30.3047 416.604 30.1745L414.716 28.3516C414.39 28.026 414.39 27.5052 414.716 27.1797C415.041 26.9193 415.562 26.9193 415.888 27.1797L417.711 29.0677C418.036 29.3281 418.036 29.849 417.711 30.1745C417.58 30.3047 417.385 30.4349 417.19 30.4349Z" fill="black"/>
<path d="M419.339 28.2865C419.143 28.2865 418.948 28.2214 418.753 28.0261L416.93 26.2032C416.604 25.8777 416.604 25.3568 416.93 25.0964C417.19 24.7709 417.711 24.7709 418.036 25.0964L419.924 26.9193C420.25 27.2449 420.25 27.7006 419.924 28.0261C419.729 28.2214 419.534 28.2865 419.339 28.2865Z" fill="black"/>
<path d="M75.3932 380.305C76.7604 378.938 77.5417 377.375 77.5417 375.682C77.5417 370.279 69.013 365.852 58.4661 365.852C47.9193 365.852 39.3906 370.279 39.3906 375.682C39.3906 377.375 40.1719 378.938 41.5391 380.305C40.1719 381.672 39.3906 383.234 39.3906 384.862C39.3906 387.466 41.2786 389.81 44.4687 391.568C44.4036 391.828 44.3385 392.154 44.3385 392.479C44.3385 396.451 50.6536 399.771 58.4661 399.771C66.2786 399.771 72.5937 396.451 72.5937 392.479C72.5937 392.154 72.5286 391.828 72.4635 391.568C75.5885 389.81 77.5417 387.466 77.5417 384.862C77.5417 383.234 76.7604 381.672 75.3932 380.305Z" fill="black"/>
<path d="M109.703 299.38C109.703 271.451 86.7212 248.859 58.466 248.859C30.2108 248.859 7.42438 271.19 7.22906 299.055C7.16396 313.247 12.9582 326.073 22.3983 335.318C29.2343 342.023 34.2473 350.292 36.6561 359.471L36.7212 359.862C39.065 368.781 47.203 375.031 56.578 375.031H60.3541C69.664 375.031 77.802 368.781 80.1457 359.862L80.2108 359.602C82.6197 350.487 87.3723 342.154 94.2082 335.578C103.779 326.398 109.703 313.573 109.703 299.38Z" fill="white"/>
<path d="M58.4658 249.641C30.8616 249.641 8.20538 271.776 8.07516 299.055C7.94496 312.596 13.2835 325.292 22.984 334.797C30.0153 341.633 35.0283 350.096 37.4371 359.276L37.5022 359.667C39.7809 368.26 47.5934 374.185 56.5778 374.185H60.3538C69.3382 374.185 77.1507 368.26 79.3642 359.667L79.4293 359.406C81.9033 350.031 86.8512 341.568 93.6871 334.992C103.453 325.552 108.856 312.922 108.856 299.38C108.856 271.971 86.2653 249.641 58.4658 249.641ZM60.3538 375.813H56.5778C46.8772 375.813 38.4137 369.367 36.0048 360.122L35.8746 359.667C33.5309 350.747 28.7132 342.544 21.8772 335.904C11.8512 326.073 6.31734 312.987 6.44756 299.055C6.51266 285.383 11.9814 272.557 21.747 262.922C31.5778 253.352 44.5986 248.013 58.4658 248.013C87.1116 248.013 110.484 271.06 110.484 299.38C110.484 313.378 104.885 326.398 94.7939 336.164C88.1533 342.544 83.4007 350.682 80.9918 359.797L80.9267 360.122C78.5179 369.367 70.0543 375.813 60.3538 375.813Z" fill="black"/>
<path d="M62.0464 367.805C61.5907 367.805 61.2652 367.479 61.2001 367.088C58.661 339.549 72.0074 295.93 72.1376 295.474C72.2678 295.083 72.7235 294.823 73.1792 294.953C73.5699 295.083 73.8303 295.539 73.7001 295.93C73.5699 296.385 60.2886 339.68 62.8277 366.958C62.8277 367.349 62.5672 367.74 62.1115 367.805C62.0464 367.805 62.0464 367.805 62.0464 367.805Z" fill="black"/>
<path d="M55.6665 366.633C55.2759 366.633 54.8853 366.307 54.8853 365.852C53.9087 313.182 43.427 298.273 43.3619 298.143C43.1014 297.818 43.1665 297.297 43.4921 297.037C43.8827 296.776 44.4035 296.841 44.6639 297.232C45.0546 297.818 55.5363 312.596 56.5129 365.852C56.5129 366.242 56.1223 366.633 55.7316 366.633C55.6665 366.633 55.6665 366.633 55.6665 366.633Z" fill="black"/>
<path d="M62.7626 290.331C62.2417 290.852 61.3303 293 61.3954 295.279C61.4605 296.516 61.8511 297.948 62.4371 299.055C62.9579 297.883 63.3485 296.581 63.4787 295.344C63.7391 293.065 63.1532 290.917 62.7626 290.331ZM54.6897 291.828C54.2339 292.154 53.4527 294.302 53.7131 296.646C53.8433 297.883 54.299 299.185 54.9501 300.292C55.9266 298.925 56.5126 297.036 56.3824 295.474C56.1871 293.586 55.1454 292.023 54.6897 291.828ZM58.2704 304.523C58.2053 304.523 58.2053 304.523 58.1402 304.523C56.8381 304.458 55.6662 303.742 54.7548 302.766C53.8433 303.352 52.8667 303.742 51.8251 303.742C49.0907 303.807 46.4865 301.659 45.4449 298.469C45.3147 298.078 45.51 297.622 45.9657 297.492C46.3563 297.362 46.8121 297.622 46.9423 298.013C47.7886 300.422 49.8069 302.18 51.8251 302.115C52.6063 302.115 53.2574 301.854 53.7782 301.464C52.8667 300.031 52.2808 298.273 52.1506 296.841C51.8902 294.628 52.411 292.089 53.3225 290.982C53.7131 290.461 54.1688 290.266 54.4944 290.266C54.8199 290.201 55.3407 290.266 55.8615 290.721C56.9032 291.568 57.8147 293.521 57.9449 295.344C58.1402 297.492 57.2938 299.966 55.9266 301.659C56.5777 302.44 57.3589 302.896 58.2053 302.961C59.3772 303.026 60.549 302.05 61.5256 300.682C60.4839 299.12 59.898 297.037 59.8329 295.344C59.7027 292.74 60.6792 290.07 61.7209 289.159C62.1766 288.703 62.6324 288.638 62.8928 288.638C63.1532 288.638 63.5438 288.768 63.9345 289.224C64.8459 290.266 65.3667 293.13 65.1063 295.539C64.911 297.102 64.3251 298.99 63.4136 300.617C63.9345 301.138 64.5204 301.464 65.1063 301.464C66.3433 301.464 67.8407 299.901 68.622 297.688C68.8173 297.297 69.273 297.102 69.6636 297.232C70.0542 297.362 70.3147 297.818 70.1194 298.273C69.0777 301.138 67.1245 303.026 65.1063 303.026C64.1297 303.091 63.2834 302.635 62.5673 301.984C61.3954 303.482 59.9631 304.523 58.2704 304.523Z" fill="black"/>
<path d="M74.1566 271.711C75.7842 273.274 77.6071 274.641 79.1696 276.268C80.7972 277.961 82.2946 280.044 83.5967 282.063C84.8988 284.016 86.1358 286.034 86.9821 288.182C87.4379 289.224 87.6332 290.266 87.9587 291.307C88.4144 292.87 89.1306 296.451 91.279 296.581C92.4509 296.646 93.3624 295.474 93.8832 294.563C94.8597 293 95.3155 291.177 95.4457 289.354C95.7712 285.578 94.7295 281.737 93.2321 278.287C91.6696 274.706 89.4561 271.32 86.6566 268.521C85.5498 267.349 84.2478 266.242 82.8806 265.266C82.8155 265.266 82.7504 265.201 82.7504 265.201C81.1228 263.964 79.2999 262.727 77.2165 262.596C75.654 262.466 73.9613 262.857 72.7243 263.899C69.7295 266.372 71.9431 269.628 74.1566 271.711Z" fill="#CADDFF"/>
<path d="M69.7295 263.573C70.3806 262.206 70.1202 259.862 69.0785 258.56C69.0785 258.495 69.0785 258.495 69.0134 258.43C67.1905 255.37 62.4379 256.151 61.7217 259.667C61.0056 263.378 67.6462 267.805 69.7295 263.573Z" fill="#CADDFF"/>
<path d="M73.7007 336.359C73.4403 336.359 73.1148 336.164 72.9846 335.839C72.7893 335.448 72.9846 334.992 73.4403 334.797C83.3362 330.565 91.2138 322.362 94.9898 312.336C95.12 311.945 95.5757 311.75 96.0315 311.88C96.4221 312.076 96.6174 312.531 96.4872 312.922C92.581 323.339 84.3778 331.867 74.0263 336.294C73.9612 336.294 73.831 336.359 73.7007 336.359Z" fill="black"/>
<path d="M27.6064 326.594C27.346 326.594 27.1507 326.529 27.0205 326.333C19.9893 318.781 16.083 308.951 16.083 298.664C16.083 282.844 25.0674 268.781 39.4554 261.815C39.846 261.62 40.3669 261.815 40.5622 262.206C40.7575 262.596 40.5622 263.052 40.1715 263.247C26.3044 269.888 17.7106 283.495 17.7106 298.664C17.7106 308.56 21.4215 318 28.1924 325.292C28.5179 325.617 28.4528 326.073 28.1273 326.398C27.9971 326.529 27.8018 326.594 27.6064 326.594Z" fill="black"/>
<path d="M35.2889 327.505C35.1587 327.505 34.9634 327.44 34.8332 327.31C27.7368 322.362 22.7889 315.005 20.966 306.607C18.1014 293.651 22.854 280.565 33.4009 272.362C33.7915 272.102 34.2473 272.167 34.5728 272.492C34.8332 272.818 34.7681 273.339 34.3775 273.599C24.3514 281.411 19.7941 293.911 22.5285 306.281C24.2863 314.289 28.9738 321.32 35.8098 326.008C36.1353 326.268 36.2004 326.789 36.0051 327.115C35.8098 327.375 35.5494 327.505 35.2889 327.505Z" fill="black"/>
<path d="M51.3693 383.625C46.6167 383.625 43.2964 383.104 42.9709 383.039C42.5803 382.974 42.2547 382.583 42.3199 382.128C42.385 381.737 42.8407 381.411 43.2313 381.477C43.4266 381.542 59.898 384.016 73.4396 377.57C73.8303 377.375 74.286 377.57 74.4813 377.961C74.6766 378.352 74.5464 378.807 74.1558 379.003C66.2131 382.779 57.5542 383.625 51.3693 383.625Z" fill="white"/>
<path d="M53.3227 392.414C49.8071 392.414 47.3983 392.089 47.203 392.023C46.7472 391.958 46.4217 391.568 46.4868 391.112C46.617 390.721 47.0076 390.396 47.4634 390.461C47.5285 390.461 59.5076 392.284 69.2733 387.662C69.6639 387.466 70.1196 387.596 70.3149 388.052C70.5102 388.443 70.38 388.898 69.9243 389.094C64.1951 391.828 57.8149 392.414 53.3227 392.414Z" fill="white"/>
</svg>
